<svg width="100%" height="100%" id="svg" viewBox="0 0 1440 590" xmlns="http://www.w3.org/2000/svg" class="transition duration-300 ease-in-out delay-150"><defs><linearGradient id="gradient" x1="0%" y1="54%" x2="100%" y2="46%"><stop offset="5%" stop-color="#ff6900"></stop><stop offset="95%" stop-color="#7bdcb5"></stop></linearGradient></defs><path d="M 0,600 L 0,112 C 46.78651299267757,145.60411324645113 93.57302598535514,179.20822649290227 144,166 C 194.42697401464486,152.79177350709773 248.49440905125698,92.77120727484203 294,76 C 339.505590948743,59.228792725157966 376.4493378096171,85.70694440772954 419,90 C 461.5506621903829,94.29305559227046 509.70823971027505,76.40101509423985 561,77 C 612.291760289725,77.59898490576015 666.7177033492824,96.68899521531101 725,97 C 783.2822966507176,97.31100478468899 845.4209468925957,78.8430040445161 889,75 C 932.5790531074043,71.1569959554839 957.5985090803351,81.93898860662455 1006,83 C 1054.4014909196649,84.06101139337545 1126.1850167860637,75.4010415289857 1178,74 C 1229.8149832139363,72.5989584710143 1261.6614237754104,78.45684527743266 1302,86 C 1342.3385762245896,93.54315472256734 1391.169288112295,102.77157736128368 1440,112 L 1440,600 L 0,600 Z" stroke="none" stroke-width="0" fill="url(#gradient)" fill-opacity="0.4" class="transition-all duration-300 ease-in-out delay-150 path-0"></path><defs><linearGradient id="gradient" x1="0%" y1="54%" x2="100%" y2="46%"><stop offset="5%" stop-color="#ff6900"></stop><stop offset="95%" stop-color="#7bdcb5"></stop></linearGradient></defs><path d="M 0,600 L 0,262 C 36.82697137117027,283.9135055116445 73.65394274234055,305.82701102328895 128,313 C 182.34605725765945,320.17298897671105 254.21120040180818,312.6054614184885 303,299 C 351.7887995981918,285.3945385815115 377.5012556504269,265.75114330275716 419,262 C 460.4987443495731,258.24885669724284 517.7837769964841,270.38996537048297 575,279 C 632.2162230035159,287.61003462951703 689.3636363636364,292.688995215311 734,298 C 778.6363636363636,303.311004784689 810.7616775489705,308.85405376827305 862,287 C 913.2383224510295,265.14594623172695 983.5896534404822,215.89478971159693 1028,214 C 1072.4103465595178,212.10521028840307 1090.879708689101,257.56678738533935 1134,270 C 1177.120291310899,282.43321261466065 1244.891511803114,261.8380607470459 1300,255 C 1355.108488196886,248.1619392529541 1397.554244098443,255.08096962647704 1440,262 L 1440,600 L 0,600 Z" stroke="none" stroke-width="0" fill="url(#gradient)" fill-opacity="0.53" class="transition-all duration-300 ease-in-out delay-150 path-1"></path><defs><linearGradient id="gradient" x1="0%" y1="54%" x2="100%" y2="46%"><stop offset="5%" stop-color="#ff6900"></stop><stop offset="95%" stop-color="#7bdcb5"></stop></linearGradient></defs><path d="M 0,600 L 0,412 C 53.42298236802455,420.59881307991225 106.8459647360491,429.19762615982444 153,443 C 199.1540352639509,456.80237384017556 238.03912342382824,475.8083084406144 277,453 C 315.96087657617176,430.1916915593856 354.99754156863787,365.56914007771815 410,364 C 465.00245843136213,362.43085992228185 535.9707103016204,423.9151312485131 594,451 C 652.0292896983796,478.0848687514869 697.1196172248805,470.77033492822966 744,453 C 790.8803827751195,435.22966507177034 839.550820798858,407.00352903856833 889,391 C 938.449179201142,374.99647096143167 988.6770995796874,371.2155489174972 1028,381 C 1067.3229004203126,390.7844510825028 1095.7407808823918,414.13427529144303 1140,430 C 1184.2592191176082,445.86572470855697 1244.3597768907453,454.24734991673057 1297,450 C 1349.6402231092547,445.75265008326943 1394.8201115546274,428.8763250416347 1440,412 L 1440,600 L 0,600 Z" stroke="none" stroke-width="0" fill="url(#gradient)" fill-opacity="1" class="transition-all duration-300 ease-in-out delay-150 path-2"></path></svg>