<svg width="100%" height="100%" id="svg" viewBox="0 0 1440 590" xmlns="http://www.w3.org/2000/svg" class="transition duration-300 ease-in-out delay-150"><defs><linearGradient id="gradient" x1="0%" y1="50%" x2="100%" y2="50%"><stop offset="5%" stop-color="#F78DA7"></stop><stop offset="95%" stop-color="#8ED1FC"></stop></linearGradient></defs><path d="M 0,600 L 0,150 C 38.40770308493484,103.7815036083428 76.81540616986968,57.56300721668562 130,75 C 183.18459383013032,92.43699278331438 251.14607840545614,173.52947474160035 300,201 C 348.85392159454386,228.47052525839965 378.6002802083057,202.31909381691295 428,175 C 477.3997197916943,147.68090618308705 546.4528007613206,119.19414999074786 590,135 C 633.5471992386794,150.80585000925214 651.5885167464115,210.9043062200957 700,210 C 748.4114832535885,209.0956937799043 827.1931322530332,147.1886251288694 883,121 C 938.8068677469668,94.8113748711306 971.6389542414552,104.34119326442675 1009,100 C 1046.3610457585448,95.65880673557325 1088.2510507811467,77.44660181342357 1140,103 C 1191.7489492188533,128.55339818657643 1253.356842633958,197.87239948187897 1305,213 C 1356.643157366042,228.12760051812103 1398.321578683021,189.0638002590605 1440,150 L 1440,600 L 0,600 Z" stroke="none" stroke-width="0" fill="url(#gradient)" fill-opacity="0.53" class="transition-all duration-300 ease-in-out delay-150 path-0"></path><defs><linearGradient id="gradient" x1="0%" y1="50%" x2="100%" y2="50%"><stop offset="5%" stop-color="#F78DA7"></stop><stop offset="95%" stop-color="#8ED1FC"></stop></linearGradient></defs><path d="M 0,600 L 0,350 C 47.98354437072088,306.8415104813767 95.96708874144176,263.6830209627534 140,281 C 184.03291125855824,298.3169790372466 224.11518940495387,376.109426630363 274,406 C 323.88481059504613,435.890573369637 383.57215363874275,417.8792725157948 431,388 C 478.42784636125725,358.1207274842052 513.596196040075,316.373483306458 561,305 C 608.403803959925,293.626516693542 668.043062200957,312.62679425837325 712,343 C 755.956937799043,373.37320574162675 784.2315551560972,415.1193396600491 840,398 C 895.7684448439028,380.8806603399509 979.0307171746545,304.89584710143015 1032,296 C 1084.9692828253455,287.10415289856985 1107.6455761452853,345.29727193423037 1154,379 C 1200.3544238547147,412.70272806576963 1270.386978244204,421.91506516164844 1322,413 C 1373.613021755796,404.08493483835156 1406.8065108778978,377.04246741917575 1440,350 L 1440,600 L 0,600 Z" stroke="none" stroke-width="0" fill="url(#gradient)" fill-opacity="1" class="transition-all duration-300 ease-in-out delay-150 path-1"></path></svg>